<?xml version="1.0" encoding="UTF-8" standalone="no"?>
<!DOCTYPE svg PUBLIC "-//W3C//DTD SVG 1.1//EN" "http://www.w3.org/Graphics/SVG/1.1/DTD/svg11.dtd">
<svg xmlns="http://www.w3.org/2000/svg" version="1.1" viewBox="0.00 0.00 301.00 301.00">
<path fill="#000000" d="
  M 139.19 129.83
  A 0.33 0.33 0.0 0 0 138.88 129.35
  C 135.56 129.49 131.38 129.96 129.38 126.86
  Q 127.57 124.06 122.75 115.88
  C 120.54 112.12 124.84 110.31 127.92 110.35
  Q 136.45 110.44 148.00 110.33
  A 0.88 0.87 11.9 0 0 148.80 109.81
  Q 155.85 94.10 163.19 79.93
  Q 167.29 72.00 173.81 64.35
  C 180.76 56.19 189.80 51.42 200.23 50.96
  C 205.30 50.74 224.35 49.89 220.44 60.67
  Q 218.51 66.00 214.61 69.60
  C 211.83 72.16 204.98 70.48 201.28 70.29
  C 188.01 69.59 182.50 81.97 178.18 92.19
  Q 174.40 101.12 170.75 109.89
  A 0.44 0.44 0.0 0 0 171.16 110.50
  L 182.17 110.50
  A 2.14 2.13 -12.7 0 1 184.10 111.71
  Q 186.93 117.57 190.63 124.10
  C 192.66 127.67 188.68 129.52 185.75 129.52
  Q 170.42 129.48 162.68 129.50
  A 0.83 0.82 -77.7 0 0 161.93 129.99
  Q 141.01 177.76 124.21 215.74
  Q 117.98 229.81 107.98 240.98
  C 101.97 247.69 94.67 251.46 85.33 248.84
  C 82.83 248.13 80.54 246.21 79.70 243.82
  Q 78.56 240.53 82.54 237.53
  Q 88.74 232.86 94.01 226.17
  Q 97.21 222.11 101.93 212.10
  Q 113.58 187.38 117.06 179.55
  Q 139.16 129.88 139.19 129.83
  Z"
/>
</svg>
