<svg width="97" height="96" xmlns="http://www.w3.org/2000/svg" xmlns:xlink="http://www.w3.org/1999/xlink" xml:space="preserve" overflow="hidden"><g transform="translate(-705 -144)"><g><g><g><g><path d="M731.6 167.79 730.24 166.321C729.741 166.784 729.255 167.261 728.782 167.752L730.224 169.139C730.669 168.676 731.128 168.226 731.6 167.79Z" fill="#000000" fill-rule="nonzero" fill-opacity="1"/><path d="M730.6 215.244 729.182 216.654C729.66 217.137 730.155 217.605 730.662 218.061L732 216.572C731.518 216.143 731.051 215.701 730.6 215.244Z" fill="#000000" fill-rule="nonzero" fill-opacity="1"/><path d="M722.934 203.134 721.051 203.808C721.28 204.449 721.528 205.082 721.796 205.708L723.636 204.923C723.385 204.335 723.149 203.738 722.934 203.134Z" fill="#000000" fill-rule="nonzero" fill-opacity="1"/><path d="M724.886 207.527 723.122 208.471C723.444 209.071 723.783 209.661 724.138 210.241L725.838 209.196C725.507 208.65 725.189 208.094 724.886 207.527Z" fill="#000000" fill-rule="nonzero" fill-opacity="1"/><path d="M727.463 211.593 725.854 212.782C726.258 213.329 726.679 213.864 727.116 214.388L728.651 213.106C728.24 212.613 727.844 212.109 727.463 211.593Z" fill="#000000" fill-rule="nonzero" fill-opacity="1"/><path d="M739.513 162.354 738.634 160.554C738.021 160.853 737.419 161.171 736.826 161.507L737.813 163.247C738.369 162.934 738.936 162.636 739.513 162.354Z" fill="#000000" fill-rule="nonzero" fill-opacity="1"/><path d="M735.806 219.519C735.273 219.164 734.748 218.794 734.232 218.408L733.032 220.008C733.577 220.418 734.134 220.812 734.703 221.189Z" fill="#000000" fill-rule="nonzero" fill-opacity="1"/><path d="M735.359 164.782 734.229 163.134C733.667 163.519 733.117 163.919 732.579 164.334L733.806 165.914C734.313 165.523 734.83 165.145 735.359 164.782Z" fill="#000000" fill-rule="nonzero" fill-opacity="1"/><path d="M719.047 193.821C719.081 194.506 719.137 195.186 719.211 195.859L721.199 195.641C721.129 195.006 721.077 194.365 721.045 193.722Z" fill="#000000" fill-rule="nonzero" fill-opacity="1"/><path d="M723.427 179.578 721.573 178.824C721.317 179.454 721.078 180.093 720.857 180.741L722.75 181.388C722.959 180.775 723.184 180.172 723.427 179.578Z" fill="#000000" fill-rule="nonzero" fill-opacity="1"/><path d="M725.566 175.265 723.846 174.247C723.499 174.833 723.169 175.43 722.856 176.037L724.634 176.953C724.929 176.384 725.239 175.822 725.566 175.265Z" fill="#000000" fill-rule="nonzero" fill-opacity="1"/><path d="M740 221.882C739.416 221.608 738.843 221.316 738.277 221.011L737.324 222.769C737.924 223.094 738.532 223.401 739.148 223.692Z" fill="#000000" fill-rule="nonzero" fill-opacity="1"/><path d="M728.312 171.307 726.755 170.051C726.328 170.58 725.916 171.122 725.518 171.678L727.145 172.842C727.519 172.318 727.908 171.806 728.312 171.307Z" fill="#000000" fill-rule="nonzero" fill-opacity="1"/><path d="M721.941 184.16 720 183.686C719.84 184.344 719.7 185.011 719.573 185.686L721.54 186.047C721.656 185.41 721.79 184.781 721.941 184.16Z" fill="#000000" fill-rule="nonzero" fill-opacity="1"/><path d="M786.438 185.91C786.556 186.539 786.656 187.173 786.738 187.81L788.723 187.559C788.636 186.88 788.53 186.207 788.406 185.54Z" fill="#000000" fill-rule="nonzero" fill-opacity="1"/><path d="M721.145 188.905 719.152 188.722C719.091 189.396 719.046 190.074 719.022 190.759L721.022 190.829C721.045 190.184 721.086 189.542 721.145 188.905Z" fill="#000000" fill-rule="nonzero" fill-opacity="1"/><path d="M719.681 198.888C719.814 199.559 719.967 200.222 720.14 200.879L722.075 200.373C721.913 199.754 721.769 199.129 721.642 198.497Z" fill="#000000" fill-rule="nonzero" fill-opacity="1"/><path d="M783.612 206.557 785.412 207.439C785.712 206.83 785.996 206.21 786.263 205.58L784.416 204.8C784.164 205.396 783.896 205.982 783.612 206.557Z" fill="#000000" fill-rule="nonzero" fill-opacity="1"/><path d="M781.171 210.709 782.819 211.844C783.206 211.281 783.577 210.71 783.93 210.129L782.221 209.09C781.886 209.64 781.536 210.18 781.171 210.709Z" fill="#000000" fill-rule="nonzero" fill-opacity="1"/><path d="M779.427 213.013C779.016 213.508 778.591 213.991 778.154 214.462L779.617 215.825C780.084 215.327 780.533 214.815 780.966 214.29Z" fill="#000000" fill-rule="nonzero" fill-opacity="1"/><path d="M772.3 219.45C771.767 219.807 771.223 220.148 770.669 220.473L771.679 222.2C772.267 221.856 772.844 221.494 773.409 221.115Z" fill="#000000" fill-rule="nonzero" fill-opacity="1"/><path d="M776.1 216.491C775.623 216.922 775.134 217.338 774.633 217.741L775.88 219.3C776.413 218.874 776.932 218.433 777.435 217.976Z" fill="#000000" fill-rule="nonzero" fill-opacity="1"/><path d="M789 192C789 191.533 788.991 191.072 788.973 190.615L786.973 190.693C786.991 191.127 787 191.563 787 192 787 192.208 786.998 192.415 786.994 192.622L788.994 192.659C789 192.438 789 192.22 789 192Z" fill="#000000" fill-rule="nonzero" fill-opacity="1"/><path d="M742.16 161.2C742.76 160.97 743.366 160.757 743.978 160.56L743.368 158.655C742.718 158.863 742.076 159.089 741.441 159.333Z" fill="#000000" fill-rule="nonzero" fill-opacity="1"/><path d="M785.422 202.093 787.322 202.706C787.53 202.06 787.72 201.405 787.892 200.742L785.954 200.242C785.8 200.867 785.618 201.483 785.422 202.093Z" fill="#000000" fill-rule="nonzero" fill-opacity="1"/><path d="M786.556 197.414 788.528 197.744C788.64 197.077 788.732 196.402 788.804 195.718L786.815 195.507C786.747 196.147 786.661 196.784 786.556 197.414Z" fill="#000000" fill-rule="nonzero" fill-opacity="1"/><path d="M746.9 226.276C747.567 226.413 748.237 226.532 748.911 226.631L749.202 224.652C748.563 224.559 747.931 224.446 747.302 224.317Z" fill="#000000" fill-rule="nonzero" fill-opacity="1"/><path d="M748.654 159.434 748.334 157.459C747.658 157.569 746.989 157.699 746.326 157.848L746.766 159.799C747.389 159.659 748.018 159.536 748.654 159.434Z" fill="#000000" fill-rule="nonzero" fill-opacity="1"/><path d="M741.982 224.875C742.622 225.108 743.27 225.324 743.925 225.522L744.501 223.606C743.883 223.421 743.273 223.218 742.67 222.996Z" fill="#000000" fill-rule="nonzero" fill-opacity="1"/><path d="M763.631 223.568C763.019 223.755 762.399 223.925 761.772 224.076L762.243 226.02C762.91 225.859 763.567 225.679 764.215 225.48Z" fill="#000000" fill-rule="nonzero" fill-opacity="1"/><path d="M754.021 227 754.143 227 754.143 225 754 225C753.353 225 752.71 224.982 752.073 224.945L751.96 226.945C752.632 226.983 753.308 227.004 754.01 227.004Z" fill="#000000" fill-rule="nonzero" fill-opacity="1"/><path d="M768.113 221.827C767.536 222.102 766.95 222.36 766.354 222.6L767.103 224.455C767.734 224.2 768.358 223.927 768.973 223.634Z" fill="#000000" fill-rule="nonzero" fill-opacity="1"/><path d="M758.938 224.631C758.307 224.726 757.668 224.803 757.026 224.861L757.208 226.854C757.889 226.791 758.565 226.71 759.235 226.609Z" fill="#000000" fill-rule="nonzero" fill-opacity="1"/><path d="M753.993 154C753.441 154 752.993 154.448 752.993 155L752.993 191.979C752.993 192.531 753.441 192.979 753.993 192.979 754.098 192.979 754.202 192.962 754.302 192.93L789.494 181.495C790.019 181.325 790.307 180.761 790.137 180.235 790.136 180.234 790.136 180.234 790.136 180.233 785.057 164.572 770.457 153.975 753.993 154ZM754.993 190.6 754.993 156.014C769.851 156.402 782.937 165.9 787.911 179.906Z" fill="#000000" fill-rule="nonzero" fill-opacity="1"/></g></g></g></g></g></svg>