<svg width="97" height="97" xmlns="http://www.w3.org/2000/svg" xmlns:xlink="http://www.w3.org/1999/xlink" xml:space="preserve" overflow="hidden"><g transform="translate(-744 -268)"><g><g><g><g><path d="M771 328.64C774.314 328.64 777 331.326 777 334.64 777 337.954 774.314 340.64 771 340.64 767.686 340.64 765 337.954 765 334.64 765.004 331.328 767.688 328.644 771 328.64M771 326.64C766.582 326.64 763 330.222 763 334.64 763 339.058 766.582 342.64 771 342.64 775.418 342.64 779 339.058 779 334.64 779 330.222 775.418 326.64 771 326.64Z" fill="#000000" fill-rule="nonzero" fill-opacity="1"/><path d="M819.5 321.8C822.814 321.8 825.5 324.486 825.5 327.8 825.5 331.114 822.814 333.8 819.5 333.8 816.186 333.8 813.5 331.114 813.5 327.8 813.504 324.488 816.188 321.804 819.5 321.8M819.5 319.8C815.082 319.8 811.5 323.382 811.5 327.8 811.5 332.218 815.082 335.8 819.5 335.8 823.918 335.8 827.5 332.218 827.5 327.8 827.5 323.382 823.918 319.8 819.5 319.8Z" fill="#000000" fill-rule="nonzero" fill-opacity="1"/><path d="M789.75 283.61C793.064 283.61 795.75 286.296 795.75 289.61 795.75 292.924 793.064 295.61 789.75 295.61 786.436 295.61 783.75 292.924 783.75 289.61 783.754 286.298 786.438 283.614 789.75 283.61M789.75 281.61C785.332 281.61 781.75 285.192 781.75 289.61 781.75 294.028 785.332 297.61 789.75 297.61 794.168 297.61 797.75 294.028 797.75 289.61 797.75 285.192 794.168 281.61 789.75 281.61Z" fill="#000000" fill-rule="nonzero" fill-opacity="1"/><path d="M826.983 304.036C826.508 303.755 825.894 303.912 825.613 304.387 825.613 304.387 825.613 304.387 825.613 304.387L821.763 310.887C821.756 310.898 821.748 310.897 821.745 310.887 819.445 300.78 811.958 292.651 802.074 289.529 801.803 289.445 801.529 289.364 801.254 289.288 800.726 289.127 800.167 289.426 800.006 289.954 799.846 290.482 800.144 291.041 800.672 291.202 800.687 291.206 800.702 291.21 800.717 291.214 800.973 291.285 801.227 291.36 801.479 291.439 810.83 294.393 817.863 302.157 819.879 311.754 819.879 311.766 819.879 311.771 819.864 311.765L812.887 307.633C812.407 307.36 811.797 307.527 811.523 308.007 811.256 308.475 811.408 309.07 811.867 309.353L820.727 314.6C820.955 314.735 821.227 314.774 821.484 314.709 821.741 314.643 821.962 314.478 822.097 314.25L827.333 305.406C827.615 304.931 827.458 304.318 826.983 304.036Z" fill="#000000" fill-rule="nonzero" fill-opacity="1"/><path d="M813.792 336.564C813.406 336.169 812.773 336.162 812.378 336.548 812.378 336.548 812.377 336.549 812.377 336.549 812.187 336.734 811.996 336.917 811.801 337.097 804.567 343.717 794.327 345.925 785.008 342.873 784.996 342.873 784.995 342.861 785.008 342.855L792.076 338.878C792.557 338.607 792.728 337.997 792.457 337.516 792.186 337.035 791.576 336.864 791.095 337.135L782.121 342.185C781.64 342.455 781.468 343.065 781.739 343.547 781.739 343.547 781.739 343.547 781.739 343.547L786.779 352.503C787.05 352.985 787.66 353.155 788.141 352.884 788.623 352.614 788.794 352.004 788.523 351.522L784.823 344.94C784.817 344.928 784.823 344.922 784.834 344.926 787.612 345.794 790.505 346.235 793.415 346.235 800.727 346.244 807.775 343.507 813.165 338.566 813.374 338.374 813.579 338.177 813.783 337.978 814.176 337.59 814.18 336.957 813.792 336.564Z" fill="#000000" fill-rule="nonzero" fill-opacity="1"/><path d="M777.288 294.18C777.103 293.992 776.852 293.884 776.588 293.88L766.311 293.766 766.3 293.766C765.748 293.763 765.297 294.208 765.294 294.76 765.292 295.313 765.737 295.763 766.289 295.766L773.845 295.85C773.858 295.85 773.861 295.858 773.851 295.867 766.248 302.912 762.952 313.46 765.191 323.58 765.253 323.858 765.32 324.135 765.391 324.412 765.505 324.853 765.903 325.161 766.358 325.162 766.443 325.162 766.527 325.151 766.609 325.13 767.143 324.992 767.465 324.447 767.327 323.912 767.26 323.656 767.198 323.399 767.141 323.141 765.024 313.566 768.232 303.594 775.534 297.049 775.544 297.041 775.552 297.049 775.551 297.057L775.462 305.166C775.456 305.718 775.899 306.171 776.451 306.177 776.451 306.177 776.451 306.177 776.451 306.177L776.462 306.177C777.01 306.177 777.456 305.736 777.462 305.188L777.576 294.888C777.578 294.623 777.474 294.369 777.288 294.18Z" fill="#000000" fill-rule="nonzero" fill-opacity="1"/></g></g></g></g></g></svg>