<svg width="98" height="97" xmlns="http://www.w3.org/2000/svg" xmlns:xlink="http://www.w3.org/1999/xlink" xml:space="preserve" overflow="hidden"><g transform="translate(-518 -413)"><g><g><g><g><path d="M551.487 480.865C553.275 481.762 555.248 482.229 557.248 482.228 560.694 482.229 563.998 480.859 566.432 478.42L598.69 446.162C598.694 446.158 598.7 446.158 598.704 446.162 598.706 446.164 598.707 446.166 598.707 446.169L598.707 454.733 600.707 454.733 600.707 442.733 588.734 442.733 588.734 444.733 597.266 444.733C597.271 444.733 597.276 444.738 597.276 444.743 597.276 444.746 597.275 444.748 597.273 444.75L565.235 476.788C563.443 478.637 561.078 479.824 558.525 480.157 554.509 480.628 550.559 478.858 548.237 475.548L546.131 472.548 544.5 473.7 546.335 476.314C547.647 478.236 549.418 479.8 551.487 480.865Z" fill="#000000" fill-rule="nonzero" fill-opacity="1"/><path d="M535 428 533 428 533 496 600.97 496 600.97 494 535 494 535 428Z" fill="#000000" fill-rule="nonzero" fill-opacity="1"/></g></g></g></g></g></svg>